<?xml version="1.0" encoding="UTF-8"?>
<!DOCTYPE svg PUBLIC "-//W3C//DTD SVG 1.1//EN" "http://www.w3.org/Graphics/SVG/1.1/DTD/svg11.dtd">
<svg xmlns="http://www.w3.org/2000/svg" version="1.1" width="1024px" height="1024px" style="shape-rendering:geometricPrecision; text-rendering:geometricPrecision; image-rendering:optimizeQuality; fill-rule:evenodd; clip-rule:evenodd" xmlns:xlink="http://www.w3.org/1999/xlink">
<g><path style="opacity:1" fill="#f9f9f9" d="M 275.5,612.5 C 279.167,610.833 281.833,608.167 283.5,604.5C 300.833,586.5 318.5,568.833 336.5,551.5C 339.833,550.167 342.167,547.833 343.5,544.5C 346.167,541.167 349.167,538.167 352.5,535.5C 355.833,534.167 358.167,531.833 359.5,528.5C 361.833,525.5 364.5,522.833 367.5,520.5C 371.167,518.833 373.833,516.167 375.5,512.5C 379.167,508.167 383.167,504.167 387.5,500.5C 389.749,499.92 391.415,498.587 392.5,496.5C 393.71,494.448 394.71,492.282 395.5,490C 395.375,488.373 394.875,486.873 394,485.5C 351.667,443.167 309.333,400.833 267,358.5C 249.797,338.403 241.964,315.069 243.5,288.5C 245.217,285.155 245.884,281.489 245.5,277.5C 245.216,275.585 245.549,273.919 246.5,272.5C 247.924,270.485 248.59,268.152 248.5,265.5C 253.179,249.797 261.179,236.131 272.5,224.5C 275.089,223.581 277.089,221.914 278.5,219.5C 294.423,204.451 313.423,195.617 335.5,193C 362.516,189.601 387.183,195.601 409.5,211C 464.973,265.472 520.139,320.306 575,375.5C 624.729,433.951 633.063,497.951 600,567.5C 594.831,576.508 589.164,585.175 583,593.5C 526.473,650.694 469.973,707.86 413.5,765C 383.11,790.903 348.777,797.57 310.5,785C 262.151,764.16 239.318,727.326 242,674.5C 246.128,649.904 257.294,629.237 275.5,612.5 Z"/></g>
<g><path style="opacity:1" fill="#f8f8f8" d="M 820.5,279.5 C 821.277,290.148 821.61,300.815 821.5,311.5C 816.928,345.828 799.928,371.994 770.5,390C 728.225,411.75 687.892,408.75 649.5,381C 613.027,348.234 602.193,308.4 617,261.5C 634.036,222.213 663.869,199.713 706.5,194C 748.506,191.756 781.673,207.59 806,241.5C 813.36,253.218 818.194,265.884 820.5,279.5 Z"/></g>
<g><path style="opacity:1" fill="#c6c6c6" d="M 278.5,219.5 C 277.089,221.914 275.089,223.581 272.5,224.5C 273.911,222.086 275.911,220.419 278.5,219.5 Z"/></g>
<g><path style="opacity:1" fill="#c0bfc2" d="M 248.5,265.5 C 248.59,268.152 247.924,270.485 246.5,272.5C 246.41,269.848 247.076,267.515 248.5,265.5 Z"/></g>
<g><path style="opacity:1" fill="#c7c7c7" d="M 245.5,277.5 C 245.884,281.489 245.217,285.155 243.5,288.5C 243.646,284.613 244.313,280.946 245.5,277.5 Z"/></g>
<g><path style="opacity:1" fill="#aeaeae" d="M 820.5,279.5 C 822.014,285.595 822.68,291.928 822.5,298.5C 822.499,303.013 822.166,307.347 821.5,311.5C 821.61,300.815 821.277,290.148 820.5,279.5 Z"/></g>
<g><path style="opacity:1" fill="#c1c1c1" d="M 392.5,496.5 C 391.415,498.587 389.749,499.92 387.5,500.5C 388.585,498.413 390.251,497.08 392.5,496.5 Z"/></g>
<g><path style="opacity:1" fill="#c5c3c6" d="M 375.5,512.5 C 373.833,516.167 371.167,518.833 367.5,520.5C 369.833,517.5 372.5,514.833 375.5,512.5 Z"/></g>
<g><path style="opacity:1" fill="#c3c3c3" d="M 359.5,528.5 C 358.167,531.833 355.833,534.167 352.5,535.5C 354.5,532.833 356.833,530.5 359.5,528.5 Z"/></g>
<g><path style="opacity:1" fill="#c5c4c5" d="M 343.5,544.5 C 342.167,547.833 339.833,550.167 336.5,551.5C 338.5,548.833 340.833,546.5 343.5,544.5 Z"/></g>
<g><path style="opacity:1" fill="#c3c3c3" d="M 283.5,604.5 C 281.833,608.167 279.167,610.833 275.5,612.5C 277.833,609.5 280.5,606.833 283.5,604.5 Z"/></g>
</svg>
